<svg xmlns="http://www.w3.org/2000/svg" width="28.904" height="28.904" viewBox="0 0 28.904 28.904">
  <path id="ic_extension_24px" d="M27.463,14.764H25.4V9.258a2.761,2.761,0,0,0-2.753-2.753H17.14V4.441a3.441,3.441,0,1,0-6.882,0V6.505H4.753A2.749,2.749,0,0,0,2.014,9.258v5.23H4.065a3.716,3.716,0,0,1,0,7.432H2v5.23A2.761,2.761,0,0,0,4.753,29.9h5.23V27.839a3.716,3.716,0,1,1,7.432,0V29.9h5.23A2.761,2.761,0,0,0,25.4,27.151V21.646h2.065a3.441,3.441,0,0,0,0-6.882Z" transform="translate(-2 -1)" fill="#fff"/>
</svg>
