<svg xmlns="http://www.w3.org/2000/svg" width="328" height="8.725" viewBox="0 0 328 8.725">
  <path id="Subtraction_31" data-name="Subtraction 31" d="M-1277.958-306.469h0l-7.168-7.169-7.159,7.169-7.18-7.169-7.169,7.169-7.159-7.169-7.169,7.169-7.169-7.169-7.168,7.169-7.169-7.169-7.169,7.169-7.169-7.169-7.169,7.169-7.169-7.169-7.159,7.169-7.18-7.169-7.169,7.169-7.159-7.169-7.169,7.169-7.169-7.169-7.169,7.169-7.169-7.169-7.169,7.169-7.169-7.169L-1450-306.47l-7.169-7.169-7.159,7.169-7.18-7.169-7.169,7.169-7.159-7.169L-1493-306.47l-7.169-7.169-7.169,7.169-7.169-7.169-7.169,7.169-7.168-7.169-7.169,7.169-7.169-7.169-7.159,7.169-7.18-7.169-7.169,7.169-7.159-7.169-7.169,7.169-7.169-7.169-.305.305v-1.555l.305-.305,7.169,7.169,7.169-7.169,7.159,7.169,7.169-7.169,7.18,7.169,7.159-7.169,7.169,7.169,7.169-7.169,7.168,7.169,7.169-7.169,7.169,7.169,7.169-7.169,7.169,7.169,7.169-7.169,7.159,7.169,7.169-7.169,7.18,7.169,7.159-7.169,7.169,7.169,7.169-7.169,7.169,7.169,7.169-7.169,7.169,7.169,7.169-7.169,7.169,7.169,7.169-7.169,7.159,7.169,7.169-7.169,7.18,7.169,7.159-7.169,7.169,7.169,7.169-7.169,7.169,7.169,7.169-7.169,7.169,7.169,7.168-7.169,7.169,7.169,7.169-7.169,7.159,7.169,7.169-7.169,7.18,7.169,7.159-7.169,7.169,7.169,7.169-7.169,7.169,7.169,5.117-5.118v1.567l-5.117,5.106-7.17-7.169-7.169,7.169Z" transform="translate(1586.5 315.194)" fill="#e2e2e2" opacity="0.31"/>
</svg>
